<?xml version="1.0" encoding="UTF-8"?>
<svg version="1.1" xmlns="http://www.w3.org/2000/svg" width="1859" height="1859">
<path d="M0 0 C48.0676414 -0.01712891 96.13528303 -0.03304815 144.20292664 -0.04234314 C144.91504049 -0.0424812 145.62715433 -0.04261925 146.36084739 -0.04276149 C161.83928815 -0.04575483 177.31772894 -0.04852495 192.79616978 -0.05106533 C200.38746931 -0.0523126 207.97876884 -0.05360916 215.57006836 -0.05493164 C216.32546918 -0.0550624 217.08087001 -0.05519316 217.85916176 -0.05532788 C242.31677457 -0.05958455 266.77438505 -0.06709236 291.23199645 -0.07629722 C316.37827017 -0.08574402 341.52454262 -0.09188873 366.67081809 -0.09391499 C370.2275637 -0.09420312 373.78430931 -0.09452875 377.34105492 -0.09487724 C378.04103117 -0.09494467 378.74100743 -0.09501209 379.46219509 -0.09508156 C390.70198679 -0.09626045 401.94177452 -0.10089085 413.18156461 -0.10683203 C424.49823013 -0.11273947 435.81489055 -0.11488234 447.13155798 -0.11350138 C453.25629725 -0.11286243 459.3810249 -0.11382519 465.5057621 -0.11920547 C471.12402966 -0.12410456 476.74227788 -0.12429631 482.36054637 -0.12089889 C484.38240574 -0.12047956 486.40426636 -0.12172007 488.4261233 -0.12488318 C506.25961889 -0.151138 523.93653292 0.63555787 541.6875 2.375 C542.35022919 2.43936249 543.01295837 2.50372498 543.69577026 2.57003784 C555.68324693 3.74518889 567.57794827 4.98842372 579 9 C580.16273438 9.40476562 581.32546875 9.80953125 582.5234375 10.2265625 C591.72107106 13.5325968 600.38257356 17.49036756 609.05078125 21.99316406 C612.22550217 23.63301239 615.42599018 25.22071595 618.625 26.8125 C622.75 28.875 626.875 30.9375 631 33 C631 33.66 631 34.32 631 35 C631.70125 35.2475 632.4025 35.495 633.125 35.75 C636.39236998 37.17059564 639.05268675 38.9949768 642 41 C643.14312537 41.76317633 644.28635601 42.52619501 645.4296875 43.2890625 C646.57851536 44.06713228 647.72695111 44.8457813 648.875 45.625 C649.46796875 46.01945312 650.0609375 46.41390625 650.671875 46.8203125 C652.15083617 47.82900491 653.58058147 48.90911158 655 50 C655 50.66 655 51.32 655 52 C655.55558594 52.24878906 656.11117187 52.49757813 656.68359375 52.75390625 C665.05071849 57.25493963 671.9397082 64.74211609 678.4921875 71.51953125 C680.87866382 73.8799868 683.38089419 75.90728311 686 78 C687.1606886 79.21693343 688.28800407 80.46681457 689.375 81.75 C691.23178313 83.92916965 693.08857371 86.09841523 695.00390625 88.2265625 C695.64199219 88.93554688 696.28007813 89.64453125 696.9375 90.375 C697.81728516 91.34566406 697.81728516 91.34566406 698.71484375 92.3359375 C700 94 700 94 700 96 C700.66 96 701.32 96 702 96 C703.875 98.23046875 703.875 98.23046875 706 101.1875 C706.70125 102.15042969 707.4025 103.11335937 708.125 104.10546875 C709.80960739 106.70608141 710.97768435 109.08746531 712 112 C712.66 112 713.32 112 714 112 C715.48126208 114.13891786 716.81629043 116.2574457 718.125 118.5 C718.52315918 119.17417969 718.92131836 119.84835937 719.33154297 120.54296875 C723.58727916 127.84912751 727.3543474 135.37505666 731 143 C731.46817139 143.97549805 731.46817139 143.97549805 731.94580078 144.97070312 C742.14559878 166.29900915 742.14559878 166.29900915 745.32421875 177.6484375 C745.81985094 179.37312293 746.383392 181.07867036 746.984375 182.76953125 C763.28542647 234.61941418 755.6138815 312.66948344 730.9453125 360.30859375 C730.29850932 361.53992238 729.65017063 362.77044614 729 364 C728.19175781 365.53333984 728.19175781 365.53333984 727.3671875 367.09765625 C725.94193604 369.75041486 724.484528 372.38000869 723 375 C722.19175781 376.43279297 722.19175781 376.43279297 721.3671875 377.89453125 C720.83351563 378.81621094 720.29984375 379.73789062 719.75 380.6875 C719.27046875 381.51636719 718.7909375 382.34523438 718.296875 383.19921875 C717.86890625 383.79347656 717.4409375 384.38773438 717 385 C716.34 385 715.68 385 715 385 C714.73703125 385.73734375 714.4740625 386.4746875 714.203125 387.234375 C712.98835797 390.02676155 711.68456646 391.91169793 709.75 394.25 C709.03457031 395.11882812 708.31914063 395.98765625 707.58203125 396.8828125 C707.17549316 397.37168945 706.76895508 397.86056641 706.35009766 398.36425781 C704.84641463 400.18607992 703.36626533 402.02571486 701.88671875 403.8671875 C695.21558293 412.12577271 688.31816302 420.06561781 680.97436523 427.73486328 C678.47598002 430.34438603 676.06596914 432.91745038 673.80859375 435.7421875 C672.07191947 437.91021716 670.31460569 439.59880177 668.1875 441.375 C665.44354562 443.71603171 662.8380988 446.11227152 660.3125 448.6875 C657.6876414 451.34831556 655.05099347 453.82071895 652 456 C651.34 456 650.68 456 650 456 C650 456.66 650 457.32 650 458 C648.1015625 459.5078125 648.1015625 459.5078125 645.625 461.125 C644.81289062 461.66382813 644.00078125 462.20265625 643.1640625 462.7578125 C641 464 641 464 639 464 C640.63412443 465.70840281 641.86906094 466.93453047 644 468 C644 468.66 644 469.32 644 470 C644.57621094 470.26683594 645.15242188 470.53367187 645.74609375 470.80859375 C649.87858097 472.99301074 653.35676162 476.09445042 657 479 C657.81976318 479.64678711 658.63952637 480.29357422 659.48413086 480.95996094 C666.57103036 486.63585496 673.10932609 492.75185695 679.5 499.1875 C679.99969299 499.6880188 680.49938599 500.1885376 681.01422119 500.70422363 C700.3818129 520.14543869 700.3818129 520.14543869 703 528 C703.66 528 704.32 528 705 528 C706.7265625 530.3359375 706.7265625 530.3359375 708.625 533.375 C709.25664063 534.37273438 709.88828125 535.37046875 710.5390625 536.3984375 C712 539 712 539 712 541 C712.66 541 713.32 541 714 541 C714.36351562 541.67804687 714.72703125 542.35609375 715.1015625 543.0546875 C717.62950175 547.73461606 720.19124613 552.35721599 723 556.875 C726.51246719 562.68968014 729.28753709 568.78140509 732 575 C732.34417969 575.7827832 732.68835937 576.56556641 733.04296875 577.37207031 C734.16379057 579.93128014 735.27146473 582.49579303 736.375 585.0625 C736.73319824 585.88419678 737.09139648 586.70589355 737.46044922 587.55249023 C737.79061035 588.33052002 738.12077148 589.1085498 738.4609375 589.91015625 C738.90638916 590.94861694 738.90638916 590.94861694 739.36083984 592.00805664 C740 594 740 594 740 598 C740.66 598 741.32 598 742 598 C742.12117188 598.56847656 742.24234375 599.13695312 742.3671875 599.72265625 C743.13620208 603.26603883 743.93215358 606.76479906 744.9375 610.25 C746.50583787 615.78531014 747.74863137 621.38575155 749 627 C749.28037109 628.20269531 749.28037109 628.20269531 749.56640625 629.4296875 C753.17760962 645.86492802 753.31853041 662.49140784 753.26074219 679.23999023 C753.25002836 682.92773923 753.26069159 686.61500015 753.2734375 690.30273438 C753.28371581 706.4187214 753.12192223 722.33567778 749 738 C748.67885252 739.45328838 748.36638194 740.90858347 748.0703125 742.3671875 C746.53798172 749.71175193 745.03474021 756.77130207 741.98828125 763.6640625 C740.86632987 766.31594758 740.03596827 768.99879649 739.1875 771.75 C737.2400024 777.73104994 734.52984976 783.20367377 731.6484375 788.76953125 C730.36478522 791.2851247 729.20634256 793.77084935 728.125 796.375 C725.3055873 802.8766629 721.62946441 808.96987572 718.09423828 815.10107422 C717.10674808 816.81475088 716.12895082 818.53400415 715.15234375 820.25390625 C714.62769531 821.16011719 714.10304688 822.06632812 713.5625 823 C713.11003906 823.78375 712.65757812 824.5675 712.19140625 825.375 C711.79824219 825.91125 711.40507813 826.4475 711 827 C710.34 827 709.68 827 709 827 C708.67128906 828.00546875 708.67128906 828.00546875 708.3359375 829.03125 C706.58091347 832.93130339 704.20264743 836.10382499 701.625 839.5 C701.09696777 840.2005249 700.56893555 840.9010498 700.02490234 841.62280273 C695.54278197 847.4758232 690.69661995 852.89495877 685.6171875 858.23046875 C683.57165145 860.39507332 681.63690377 862.5750173 679.75 864.875 C677.16819987 867.93574276 674.28389644 870.49054916 671.23046875 873.07421875 C669.6787405 874.41397712 668.16239731 875.79537062 666.67578125 877.20703125 C658.41768983 885.03514548 649.34480217 891.53825787 640 898 C639.37158203 898.43763672 638.74316406 898.87527344 638.09570312 899.32617188 C629.49303121 905.26724364 620.54528999 909.75538067 611.04443359 914.0546875 C607.92417795 915.49744244 604.87417643 917.06159076 601.8125 918.625 C591.85226828 923.63370435 581.80753779 928.17916466 571 931 C569.58460938 931.38285156 569.58460938 931.38285156 568.140625 931.7734375 C555.94328356 934.96496985 543.87615198 936.3696349 531.3125 937.0625 C528.62088897 937.21682887 525.92959344 937.37560271 523.23828125 937.53515625 C522.06305908 937.600979 520.88783691 937.66680176 519.67700195 937.73461914 C517.05116139 937.92413436 514.48830395 938.1757359 511.88029957 938.49790955 C506.99641999 939.04568554 502.1493119 939.21300651 497.23820496 939.29882812 C496.29196105 939.31826477 495.34571715 939.33770142 494.37079918 939.35772705 C491.20324676 939.42064522 488.03562269 939.47645137 484.86791992 939.53125 C483.74592646 939.5517894 482.623933 939.5723288 481.46793973 939.5934906 C451.44482303 940.13816536 421.41829267 940.29219363 391.39124219 940.45886374 C383.1402943 940.50490717 374.88937857 940.55587514 366.63846233 940.60723782 C351.93599003 940.69872799 337.23350528 940.78798004 322.53100586 940.875 C321.22524587 940.88273013 321.22524587 940.88273013 319.8931069 940.89061642 C310.11868237 940.94843289 300.34425482 941.0057193 290.56982422 941.0625 C286.98657222 941.08332471 283.40332026 941.1041573 279.82006836 941.125 C278.93520972 941.13014586 278.05035107 941.13529173 277.13867853 941.14059353 C262.41181338 941.22634469 247.68497424 941.31591857 232.95815057 941.40851593 C223.91538692 941.46520758 214.87261555 941.51857412 205.82980718 941.56762791 C199.67375226 941.60125803 193.51772504 941.63839105 187.36170796 941.6783514 C183.81093861 941.70127906 180.26017865 941.72253689 176.70937538 941.73950195 C172.87203088 941.75786852 169.03475979 941.78380554 165.19746399 941.81054688 C164.06467162 941.81473381 162.93187925 941.81892075 161.76475984 941.82323456 C160.74633506 941.8315757 159.72791029 941.83991684 158.67862415 941.84851074 C157.7928251 941.85366447 156.90702604 941.85881821 155.99438459 941.86412811 C154.00042812 941.78043531 154.00042812 941.78043531 153 943 C102.51 943 52.02 943 0 943 C0 831.13 0 719.26 0 604 C47.69865242 604 47.69865242 604 59.41894531 604.37231445 C61.65151879 604.44224607 63.88425064 604.49957251 66.1171875 604.55664062 C67.56772814 604.59827387 69.01825032 604.6405572 70.46875 604.68359375 C71.71076172 604.72025146 72.95277344 604.75690918 74.23242188 604.79467773 C77 605 77 605 78 606 C78.16064786 608.04874948 78.24993831 610.10309426 78.31297302 612.15716553 C78.33353402 612.81249598 78.35409501 613.46782643 78.37527907 614.14301538 C78.44216595 616.37353056 78.50003821 618.60415586 78.55639648 620.83496094 C78.57740634 621.62174839 78.59841619 622.40853583 78.62006271 623.21916533 C79.20212864 645.5006455 79.12880809 667.78730617 79.10139394 690.0745821 C79.0950321 696.14426365 79.09454667 702.213946 79.09336853 708.28363037 C79.09029227 719.71471042 79.08213025 731.14578061 79.07201904 742.57685637 C79.06074102 755.61734504 79.05531836 768.65783424 79.05032361 781.69832659 C79.03994339 808.46555647 79.02241779 835.23277768 79 862 C121.95837924 861.88977448 164.9167079 861.76508478 207.875 861.625 C208.66459708 861.62242691 209.45419417 861.61985382 210.26771843 861.61720276 C323.29543692 861.29683328 323.29543692 861.29683328 436.31550312 860.03245449 C438.37147066 860.00005562 440.42744492 859.96811765 442.48342133 859.93628693 C464.73065872 859.59074338 486.97929163 859.22170159 509.21875 858.5234375 C510.31416107 858.49113037 511.40957214 858.45882324 512.53817749 858.42553711 C528.00783336 857.87303262 543.1280206 855.01231889 557.4453125 849.04296875 C561.10494567 847.54889833 564.82757595 846.24449945 568.5546875 844.9296875 C570.98885418 844.05970768 570.98885418 844.05970768 573.1328125 842.8828125 C575 842 575 842 578 842 C578 841.34 578 840.68 578 840 C579.43429001 839.32645501 580.87257057 838.66140299 582.3125 838 C583.11300781 837.62875 583.91351562 837.2575 584.73828125 836.875 C587 836 587 836 590 836 C590 835.34 590 834.68 590 834 C591.65 833.67 593.3 833.34 595 833 C595 832.34 595 831.68 595 831 C595.86109375 830.60167969 596.7221875 830.20335937 597.609375 829.79296875 C601.14567801 827.9229652 604.09891511 825.77082125 607.25 823.3125 C612.77990431 819 612.77990431 819 615 819 C615 818.34 615 817.68 615 817 C616.36328125 815.6953125 616.36328125 815.6953125 618.3125 814.125 C629.17087544 804.81509007 637.28131303 793.9348315 645 782 C645.57492187 781.11570312 646.14984375 780.23140625 646.7421875 779.3203125 C652.94845406 769.35673862 658.37805412 758.61487511 662.140625 747.4921875 C662.99192721 745.02341108 663.97633235 742.65168179 665 740.25 C669.52519214 729.01687598 671.86264125 716.87562054 674 705 C674.20753906 703.88238281 674.41507813 702.76476563 674.62890625 701.61328125 C678.61839438 677.59265693 675.29191736 651.80277273 667 629 C666.61328125 627.86433594 666.2265625 626.72867188 665.828125 625.55859375 C661.06020589 611.89183181 654.60200882 598.61135883 646.2265625 586.7734375 C645.01681337 585.02430978 644.00566185 583.24732979 643 581.375 C640.69793774 577.49026993 638.01769227 574.33721262 635 571 C633.7043038 569.56613097 632.41263588 568.12861168 631.125 566.6875 C630.52945313 566.03136719 629.93390625 565.37523437 629.3203125 564.69921875 C628 563 628 563 628 561 C627.34 561 626.68 561 626 561 C624.64613064 559.34997172 623.31321858 557.6825613 622 556 C621.34 555.67 620.68 555.34 620 555 C620 554.34 620 553.68 620 553 C619.443125 552.7525 618.88625 552.505 618.3125 552.25 C615.57589087 550.77075182 613.32349131 549.06532561 611 547 C611 546.34 611 545.68 611 545 C610.48050781 544.77441406 609.96101563 544.54882812 609.42578125 544.31640625 C606.10376909 542.51363959 603.19204861 540.21400247 600.1875 537.9375 C589.83441284 530.24946347 579.44550275 523.43103496 567.1953125 519.16796875 C564.63534579 518.2322352 562.25318005 517.20353593 559.7890625 516.0546875 C554.73891158 513.78523566 549.60217014 512.31834501 544.25 510.9375 C543.36957031 510.69451172 542.48914062 510.45152344 541.58203125 510.20117188 C522.73381332 505.27344777 504.06829407 504.58898899 484.6875 504.8125 C482.37435782 504.82759736 480.06120594 504.84127669 477.74804688 504.85351562 C472.16514732 504.88606711 466.58262148 504.93585311 461 505 C463.55830076 507.5875205 466.12237416 510.16924676 468.6875 512.75 C469.40873047 513.47960937 470.12996094 514.20921875 470.87304688 514.9609375 C473.83555491 517.93697297 476.72342311 520.78102838 480.01953125 523.390625 C480.67308594 523.92171875 481.32664062 524.4528125 482 525 C482 525.66 482 526.32 482 527 C482.99 527.33 483.98 527.66 485 528 C485 528.66 485 529.32 485 530 C485.55179932 530.22510254 486.10359863 530.45020508 486.67211914 530.68212891 C489.71181265 532.4029748 491.79886329 534.59346412 494.24609375 537.0859375 C494.73908463 537.58412994 495.2320755 538.08232239 495.74000549 538.59561157 C497.31068619 540.18404367 498.87451086 541.77900184 500.4375 543.375 C501.9977451 544.96299888 503.55947424 546.54946247 505.12428284 548.13296509 C506.54769765 549.57412634 507.96624511 551.02009021 509.38452148 552.46630859 C511.81830966 554.8239912 514.32524245 556.92431702 517 559 C518.8125 560.625 518.8125 560.625 520 562 C520 562.66 520 563.32 520 564 C520.53625 564.226875 521.0725 564.45375 521.625 564.6875 C525.84990566 567.02231629 529.84893129 570.32375317 533 574 C533 574.66 533 575.32 533 576 C533.99 576.33 534.98 576.66 536 577 C536 577.66 536 578.32 536 579 C536.58265625 579.25394531 537.1653125 579.50789063 537.765625 579.76953125 C540.24188033 581.13320333 541.80520626 582.64225203 543.75 584.6875 C549.57817927 590.65598728 555.70174254 595.94449236 562.53125 600.73828125 C563.0159375 601.15464844 563.500625 601.57101562 564 602 C564 602.66 564 603.32 564 604 C564.59683594 604.27457031 565.19367187 604.54914062 565.80859375 604.83203125 C580.24503333 612.52631901 590.96572332 634.61191255 597 649 C597.37125 649.680625 597.7425 650.36125 598.125 651.0625 C603.933582 663.92436014 601.27616553 684.04835052 600.1875 697.6875 C600.1052417 698.73139893 600.0229834 699.77529785 599.93823242 700.85083008 C599.48319946 705.8570148 598.83389482 710.28227058 597 715 C596.75121094 715.88558594 596.50242187 716.77117188 596.24609375 717.68359375 C589.50316658 740.64863558 571.46358092 760.23633131 551 772 C549.96359375 772.61746094 548.9271875 773.23492188 547.859375 773.87109375 C534.13656445 782 534.13656445 782 530 782 C530 782.66 530 783.32 530 784 C526.20976325 785.26341225 522.64397649 785.16884921 518.69360352 785.18945312 C517.84390991 785.19774643 516.99421631 785.20603973 516.11877441 785.21458435 C514.26584819 785.23200927 512.41289963 785.24716937 510.55993843 785.26036072 C507.58832056 785.28153925 504.61680491 785.30857494 501.64524841 785.33703613 C496.3572379 785.38670474 491.06919818 785.43115231 485.78112793 785.47393799 C477.43793357 785.54149486 469.09479242 785.61359252 460.75169182 785.69187927 C457.89482425 785.71748688 455.03795015 785.73890373 452.18104553 785.7598877 C442.84887918 785.83915354 433.52563691 786.00261381 424.19760048 786.29936433 C399.84870859 787.07186005 375.51256206 787.18058187 351.15256524 787.20018864 C347.62911028 787.20316442 344.10565825 787.20727582 340.58220482 787.21169281 C329.48762099 787.22526663 318.39304421 787.23498919 307.29845268 787.2388947 C294.61471356 787.24338921 281.93108145 787.26104435 269.24737483 787.2898953 C259.34400259 787.3116219 249.4406603 787.32160435 239.53726453 787.32293582 C233.66333819 787.32397345 227.78951384 787.32965873 221.91561317 787.34775543 C173.09199613 787.48987109 173.09199613 787.48987109 155 784 C154 783 154 783 153.87974548 781.21261787 C153.88196609 780.4250202 153.88418671 779.63742252 153.88647461 778.82595825 C153.88658838 777.46754775 153.88658838 777.46754775 153.88670444 776.0816946 C153.89186542 775.07520902 153.89702639 774.06872343 153.90234375 773.03173828 C153.90375587 771.97142678 153.90516798 770.91111528 153.90662289 769.81867313 C153.91237726 766.235862 153.92507678 762.65310624 153.9375 759.0703125 C153.94264909 756.51337283 153.94723926 753.95643198 153.9513092 751.39949036 C153.95804606 747.30570428 153.96509553 743.21192293 153.97449589 739.11814213 C153.99765571 728.9583821 154.00465445 718.79870055 154.00170898 708.63891602 C154.00152657 707.90473548 154.00134415 707.17055495 154.00115621 706.41412652 C153.99962486 700.36545373 153.99745457 694.31678118 153.99525523 688.26810861 C153.99334534 682.81464403 153.99210002 677.36117974 153.99169922 671.90771484 C153.99160274 670.7412786 153.99160274 670.7412786 153.99150431 669.551278 C153.99134849 656.96376871 154.01999572 644.37647149 154.05843425 631.78902817 C154.09714383 618.86717151 154.10157976 605.94561604 154.07515907 593.02372742 C154.06000599 585.05344592 154.07194834 577.0841469 154.11879927 569.11398464 C154.15195509 562.99915751 154.13776519 556.88526808 154.10607719 550.7704525 C154.10053337 548.2650781 154.11035996 545.75961492 154.13676643 543.25437355 C154.97856956 530.32964945 154.97856956 530.32964945 150.92306519 518.53738403 C148.72191573 516.35300329 146.56727101 514.71100662 144 513 C144 512.34 144 511.68 144 511 C143.38125 510.7525 142.7625 510.505 142.125 510.25 C139.59641373 508.76259631 139.28160996 507.56321991 138 505 C137.34 504.67 136.68 504.34 136 504 C133.48382409 502.74191204 133.19514208 501.4699603 132 499 C131.01 498.67 130.02 498.34 129 498 C129 497.34 129 496.68 129 496 C128.01 495.67 127.02 495.34 126 495 C126 494.34 126 493.68 126 493 C125.360625 492.731875 124.72125 492.46375 124.0625 492.1875 C122 491 122 491 121 488 C120.360625 487.690625 119.72125 487.38125 119.0625 487.0625 C116.49948282 485.74215782 116.2592663 484.5185326 115 482 C114.11973145 481.57557617 114.11973145 481.57557617 113.22167969 481.14257812 C110.45674201 479.72061018 108.65400846 477.91322756 106.453125 475.71875 C105.60878906 474.87699219 104.76445313 474.03523438 103.89453125 473.16796875 C103.02183594 472.28753906 102.14914062 471.40710938 101.25 470.5 C100.36183594 469.61957031 99.47367188 468.73914063 98.55859375 467.83203125 C97.71941406 466.99027344 96.88023437 466.14851563 96.015625 465.28125 C95.24508789 464.50845703 94.47455078 463.73566406 93.68066406 462.93945312 C92 461 92 461 92 459 C91.12709312 458.57624273 91.12709312 458.57624273 90.23655176 458.14392471 C55.86887232 440.56595557 12.20167966 404.58008573 -0.80048656 366.66578197 C-9.18501368 338.9081604 -8.68286207 308.40284419 -8.59375 279.6875 C-8.59031735 278.1763573 -8.59031735 278.1763573 -8.58681536 276.63468647 C-8.50624021 250.50051244 -7.56491544 224.41795829 -6.33834553 198.31565475 C-5.63374437 183.15302164 -5.15819865 167.99521886 -4.83398438 152.81982422 C-4.81086471 151.74074252 -4.78774504 150.66166082 -4.76392478 149.54987967 C-4.64902315 144.13263426 -4.53783094 138.71532026 -4.42847729 133.29796028 C-3.52631725 88.83997465 -1.98611325 44.42193337 0 0 Z M81 79 C68.11466826 98.32799761 75.7405079 146.11763853 75.79721212 168.45829058 C75.80992897 174.33712811 75.81090614 180.21596895 75.81326294 186.09481812 C75.81941738 197.16827825 75.83574417 208.24169771 75.85596192 219.31514013 C75.87851179 231.94687963 75.88936176 244.57862133 75.89935279 257.21037602 C75.92011762 283.14027302 75.95517277 309.0701342 76 335 C76.99 335.33 77.98 335.66 79 336 C79.495 337.485 79.495 337.485 80 339 C80.66 339 81.32 339 82 339 C82.495 340.485 82.495 340.485 83 342 C83.66 342 84.32 342 85 342 C85 342.66 85 343.32 85 344 C85.66 344 86.32 344 87 344 C87.495 345.485 87.495 345.485 88 347 C88.66 347 89.32 347 90 347 C90.495 348.485 90.495 348.485 91 350 C91.66 350 92.32 350 93 350 C93.33 350.99 93.66 351.98 94 353 C94.66 353 95.32 353 96 353 C96.33 353.99 96.66 354.98 97 356 C97.66 356 98.32 356 99 356 C99.33 356.99 99.66 357.98 100 359 C100.66 359 101.32 359 102 359 C102 359.66 102 360.32 102 361 C103.66215268 362.33895632 105.32963607 363.67130142 107 365 C108.33333333 366.66666667 109.66666667 368.33333333 111 370 C112.65533995 371.34736973 114.32012773 372.68334336 116 374 C116.33 374.66 116.66 375.32 117 376 C117.66 376 118.32 376 119 376 C119 376.66 119 377.32 119 378 C120.33333333 379.66666667 120.33333333 379.66666667 122 381 C122.66 381 123.32 381 124 381 C124.495 382.485 124.495 382.485 125 384 C125.66 384 126.32 384 127 384 C127.495 385.485 127.495 385.485 128 387 C128.66 387 129.32 387 130 387 C130.495 388.485 130.495 388.485 131 390 C131.66 390 132.32 390 133 390 C133.495 391.485 133.495 391.485 134 393 C134.66 393 135.32 393 136 393 C136.495 394.485 136.495 394.485 137 396 C137.66 396 138.32 396 139 396 C139.495 397.485 139.495 397.485 140 399 C140.66 399 141.32 399 142 399 C142.495 400.485 142.495 400.485 143 402 C143.66 402 144.32 402 145 402 C145.495 403.485 145.495 403.485 146 405 C146.66 405 147.32 405 148 405 C148 405.66 148 406.32 148 407 C149.66215268 408.33895632 151.32963607 409.67130142 153 411 C153.721875 411.9075 154.44375 412.815 155.1875 413.75 C155.785625 414.4925 156.38375 415.235 157 416 C157.66 416 158.32 416 159 416 C159.495 417.485 159.495 417.485 160 419 C160.66 419 161.32 419 162 419 C162 419.66 162 420.32 162 421 C163.66215268 422.33895632 165.32963607 423.67130142 167 425 C168.36244796 426.64295195 169.69864875 428.30824337 171 430 C172.52007842 431.77277259 172.52007842 431.77277259 174 433 C174.66 433 175.32 433 176 433 C176.495 434.485 176.495 434.485 177 436 C177.66 436 178.32 436 179 436 C179.495 437.485 179.495 437.485 180 439 C180.66 439 181.32 439 182 439 C182.495 440.485 182.495 440.485 183 442 C183.66 442 184.32 442 185 442 C185.495 443.485 185.495 443.485 186 445 C186.66 445 187.32 445 188 445 C188 445.66 188 446.32 188 447 C188.66 447 189.32 447 190 447 C190.495 448.485 190.495 448.485 191 450 C191.66 450 192.32 450 193 450 C193.495 451.485 193.495 451.485 194 453 C194.66 453 195.32 453 196 453 C196.495 454.485 196.495 454.485 197 456 C197.66 456 198.32 456 199 456 C199.495 457.485 199.495 457.485 200 459 C200.66 459 201.32 459 202 459 C202.495 460.485 202.495 460.485 203 462 C203.66 462 204.32 462 205 462 C205.33 462.99 205.66 463.98 206 465 C206.66 465 207.32 465 208 465 C208 465.66 208 466.32 208 467 C209.66215268 468.33895632 211.32963607 469.67130142 213 471 C213.721875 471.9075 214.44375 472.815 215.1875 473.75 C215.785625 474.4925 216.38375 475.235 217 476 C217.66 476 218.32 476 219 476 C219.24169922 476.5662207 219.48339844 477.13244141 219.73242188 477.71582031 C221.25095817 480.4522274 223.07151881 482.33069338 225.28125 484.546875 C226.12300781 485.39121094 226.96476563 486.23554687 227.83203125 487.10546875 C229.15267578 488.41451172 229.15267578 488.41451172 230.5 489.75 C231.38042969 490.63816406 232.26085937 491.52632812 233.16796875 492.44140625 C234.00972656 493.28058594 234.85148438 494.11976563 235.71875 494.984375 C236.49154297 495.75491211 237.26433594 496.52544922 238.06054688 497.31933594 C239.82418529 499.21829569 239.82418529 499.21829569 242 499 C242.33 499.99 242.66 500.98 243 502 C243.66 502 244.32 502 245 502 C245.33 502.99 245.66 503.98 246 505 C246.66 505 247.32 505 248 505 C248.25014862 505.57491055 248.50029724 506.14982109 248.75802612 506.74215317 C250.1747514 509.31768938 251.79417978 511.04592037 253.87158203 513.12554932 C254.67919983 513.93880676 255.48681763 514.75206421 256.31890869 515.58996582 C257.20624695 516.47325562 258.09358521 517.35654541 259.0078125 518.26660156 C259.9510785 519.21257847 260.89391868 520.15898014 261.83636475 521.10577393 C264.39361325 523.67213434 266.95714071 526.23213521 269.52211761 528.79076862 C272.20410051 531.46768833 274.88120073 534.14948381 277.55908203 536.83050537 C282.05467562 541.32973641 286.55446772 545.82473608 291.05664062 550.31738281 C296.26707051 555.51691535 301.47023832 560.72363171 306.66971779 565.93411279 C311.13147068 570.40492908 315.59709357 574.87185177 320.06599998 579.33551764 C322.73636757 582.00276201 325.40535308 584.67135159 328.07086182 587.34345245 C331.03894682 590.31836492 334.01510318 593.28507004 336.9921875 596.25097656 C338.32319489 597.58805664 338.32319489 597.58805664 339.68109131 598.95214844 C340.48870911 599.75412659 341.2963269 600.55610474 342.12841797 601.38238525 C342.83191376 602.08512699 343.53540955 602.78786873 344.26022339 603.51190567 C345.87174865 605.21666655 345.87174865 605.21666655 348 605 C348.33 605.99 348.66 606.98 349 608 C349.66 608 350.32 608 351 608 C351.25731588 608.57569355 351.51463177 609.1513871 351.7797451 609.74452591 C353.11574261 612.21393437 354.63135352 614.01492086 356.52407837 616.08758545 C357.6231678 617.29485039 357.6231678 617.29485039 358.74446106 618.52650452 C359.95304024 619.8374131 359.95304024 619.8374131 361.18603516 621.17480469 C362.03581436 622.101978 362.88559357 623.02915131 363.76112366 623.98442078 C371.67281502 632.59263179 379.73402898 641.05960945 387.8366642 649.48791122 C393.26413798 655.13903081 398.63799266 660.82582538 403.90039062 666.63134766 C429.50083103 696.69777456 429.50083103 696.69777456 464.75353813 710.28544998 C475.35270487 710.53931891 485.66209847 709.2369738 496 707 C497.89567719 706.62313049 497.89567719 706.62313049 499.82965088 706.23864746 C508.32095284 704.36589124 513.54069012 700.80730387 518.6640625 693.6875 C521.25367449 689.4052366 522.65672919 686.12248771 522 681 C521.34 681 520.68 681 520 681 C519.73058594 680.4121875 519.46117187 679.824375 519.18359375 679.21875 C517.99702607 676.99442511 516.74203141 675.37253379 515.0625 673.5 C514.44117188 672.80648437 513.81984375 672.11296875 513.1796875 671.3984375 C512.46039062 670.60695313 511.74109375 669.81546875 511 669 C510.15695312 668.06414063 509.31390625 667.12828125 508.4453125 666.1640625 C503.12290514 660.28536911 497.67719681 654.59426057 491.99609375 649.05859375 C490 647 490 647 488 644 C487.34 644 486.68 644 486 644 C485.67 643.01 485.34 642.02 485 641 C484.34 641 483.68 641 483 641 C482.67 640.01 482.34 639.02 482 638 C481.34 638 480.68 638 480 638 C479.73960937 637.41089844 479.47921875 636.82179688 479.2109375 636.21484375 C477.92577526 633.86424056 476.56513183 632.39672944 474.625 630.5625 C472.43984777 628.45457769 470.57609933 626.46153158 468.6875 624.0625 C468.130625 623.381875 467.57375 622.70125 467 622 C466.34 622 465.68 622 465 622 C464.67 621.01 464.34 620.02 464 619 C463.34 619 462.68 619 462 619 C461.7831958 618.45722412 461.5663916 617.91444824 461.34301758 617.35522461 C459.5403469 614.19391503 457.08881634 611.8424278 454.51171875 609.31640625 C453.97150589 608.77902328 453.43129303 608.24164032 452.87471008 607.68797302 C451.15029294 605.97471454 449.41906371 604.26853224 447.6875 602.5625 C446.53404448 601.41908438 445.38104477 600.27520875 444.22851562 599.13085938 C442.09876287 597.01739279 439.96635165 594.90668926 437.83081055 592.79907227 C436.89664307 591.87537842 435.96247559 590.95168457 435 590 C434.10643799 589.11820068 433.21287598 588.23640137 432.29223633 587.32788086 C429.68723659 584.68237309 427.37014954 581.85633407 425 579 C422.93832739 576.68581709 422.93832739 576.68581709 421 575 C420.34 575 419.68 575 419 575 C418.75903076 574.4342217 418.51806151 573.86844341 418.26979017 573.28552032 C416.74007498 570.53215584 414.91162773 568.66086014 412.68335724 566.43167496 C411.77144229 565.51454452 410.85952735 564.59741408 409.91997862 563.65249181 C408.90153666 562.63837405 407.88300035 561.62435105 406.86437988 560.6104126 C405.78708186 559.53081081 404.71022032 558.45077333 403.63375902 557.37033725 C400.6708303 554.3990405 397.70167243 551.43403703 394.73146653 548.47001719 C391.53084643 545.27391225 388.33597437 542.07207049 385.1403656 538.87095642 C378.87836182 532.60004759 372.61094856 526.33457216 366.34159553 520.07101163 C361.24883868 514.98276609 356.15803066 509.89257846 351.06861877 504.80098724 C349.98333749 503.71524626 349.98333749 503.71524626 348.87613133 502.60757111 C347.40648437 501.13728473 345.93684192 499.66699385 344.46720392 498.19669852 C330.67874217 484.40253043 316.88415083 470.61450523 303.08746654 456.82856187 C291.2376137 444.9876486 279.39301986 433.14149591 267.55224609 421.29150391 C253.81352442 407.54209149 240.07157992 393.79591354 226.32443762 380.05491996 C224.86008128 378.59120075 223.39572913 377.12747734 221.93138123 375.66374969 C221.21081985 374.94349687 220.49025847 374.22324404 219.74786189 373.48116536 C214.65888085 368.39391458 209.57223133 363.30433963 204.48646545 358.21387482 C198.29408382 352.01589778 192.09817976 345.82146854 185.89766085 339.6316317 C182.73140561 336.47065072 179.56680394 333.30805852 176.40647697 330.14114952 C173.5178979 327.2466452 170.62480529 324.35673633 167.72791904 321.47054669 C166.67640291 320.42127918 165.62659929 319.37029233 164.57861811 318.31749418 C163.16254184 316.8954054 161.73979233 315.47997066 160.31664276 314.06496048 C159.5256303 313.27427272 158.73461783 312.48358496 157.9196353 311.66893697 C156.17239269 309.78129698 156.17239269 309.78129698 154 310 C154 258.85 154 207.7 154 155 C275.44 155 396.88 155 522 155 C521.34 164.9 520.68 174.8 520 185 C519.68960891 195.56387394 519.68960891 195.56387394 519.49412537 206.12619019 C519.47913939 207.31491604 519.4641534 208.50364189 519.4487133 209.72838974 C519.43341135 210.949818 519.4181094 212.17124626 519.40234375 213.4296875 C519.36348997 216.04868651 519.3238848 218.66767446 519.28358459 221.28665161 C519.1902989 227.41801033 519.10439836 233.54944571 519.02173859 239.68095601 C518.86592301 251.21540045 518.69419395 262.74962231 518.52330399 274.28385162 C518.48448892 276.91201537 518.44601109 279.54018411 518.40787888 282.16835785 C518.08864208 304.11795221 517.60098406 326.05610425 517 348 C492.25 348.33 467.5 348.66 442 349 C442 311.38 442 273.76 442 235 C373.36 235 304.72 235 234 235 C234 266.61717133 237.77187741 277.21227319 257.59887695 297.45703125 C259 299 259 299 261 302 C261.66 302 262.32 302 263 302 C263.25278717 302.57843155 263.50557434 303.1568631 263.76602173 303.75282288 C265.14910015 306.27152378 266.70166091 307.93535837 268.74365234 309.95483398 C269.89527359 311.1013871 269.89527359 311.1013871 271.07015991 312.27110291 C272.31546982 313.49622337 272.31546982 313.49622337 273.5859375 314.74609375 C274.43926666 315.59422134 275.29259583 316.44234894 276.17178345 317.31617737 C278.90149214 320.02806836 281.63777726 322.73319505 284.375 325.4375 C287.10422791 328.13907007 289.83197588 330.84209223 292.55679321 333.54811096 C294.25240921 335.23151744 295.95069169 336.91224341 297.65194702 338.58995056 C301.33748163 342.24438917 304.87269234 345.84258422 308 350 C309.52007842 351.77277259 309.52007842 351.77277259 311 353 C311.66 353 312.32 353 313 353 C313 353.66 313 354.32 313 355 C314.66215268 356.33895632 316.32963607 357.67130142 318 359 C319.33333333 360.66666667 320.66666667 362.33333333 322 364 C322.825 364.66 323.65 365.32 324.5 366 C327 368 327 368 328.8125 370.3125 C330.66203678 372.58478804 332.3396465 374.2010861 334.5625 376.0625 C338.17007381 379.1383605 341.38742944 382.48776822 344.5625 386 C345.03107422 386.51796143 345.49964844 387.03592285 345.98242188 387.56958008 C346.44197266 388.0777124 346.90152344 388.58584473 347.375 389.109375 C349.57047968 391.52701631 351.78215499 393.91264637 354.0625 396.25 C354.58972656 396.79140625 355.11695313 397.3328125 355.66015625 397.890625 C356.9668291 399.21258384 356.9668291 399.21258384 359 399 C359.33 399.99 359.66 400.98 360 402 C360.66 402 361.32 402 362 402 C362.33 402.99 362.66 403.98 363 405 C363.66 405 364.32 405 365 405 C365.33 405.99 365.66 406.98 366 408 C366.66 408 367.32 408 368 408 C368.33 408.99 368.66 409.98 369 411 C369.66 411 370.32 411 371 411 C371.33 411.99 371.66 412.98 372 414 C372.66 414 373.32 414 374 414 C374.20625 414.53625 374.4125 415.0725 374.625 415.625 C376.71360458 419.23258972 378.33288752 421.95171698 382 424 C387.42738748 424.80428922 392.779309 424.60712925 398.25 424.4375 C399.70829604 424.41593045 401.16663411 424.39703077 402.625 424.38085938 C409.11037205 424.28767817 415.58055984 424.04591858 422.05323696 423.63150024 C432.46345364 422.97552231 442.85786789 422.81133522 453.28640556 422.73963928 C456.39736875 422.71813639 459.5082466 422.69116641 462.61915588 422.66296387 C469.22523581 422.60399284 475.83135811 422.55149366 482.4375 422.5 C490.10389843 422.44020691 497.77025367 422.3775799 505.43657112 422.30812073 C508.4643262 422.28206135 511.49208741 422.26094707 514.5198822 422.2401123 C523.5002327 422.16880199 532.47939073 422.02997848 541.45336914 421.67382812 C542.21314528 421.6529438 542.97292143 421.63205948 543.75572109 421.6105423 C550.90169975 421.27343629 556.07068459 418.68854425 562.21386719 415.02783203 C565.4928706 413.14092602 568.91446472 411.53432189 572.3125 409.875 C577.96185771 407.06685552 583.53579189 404.15709802 589 401 C589 400.34 589 399.68 589 399 C589.56203125 398.89558594 590.1240625 398.79117187 590.703125 398.68359375 C593.42380471 397.87386765 595.39257807 396.63796662 597.75 395.0625 C598.94882813 394.27552734 598.94882813 394.27552734 600.171875 393.47265625 C600.77515625 392.98667969 601.3784375 392.50070312 602 392 C602 391.34 602 390.68 602 390 C602.55171875 389.75636719 603.1034375 389.51273438 603.671875 389.26171875 C608.59951323 386.5912034 612.72793284 382.59629313 617 379 C617.82371094 378.31421875 618.64742187 377.6284375 619.49609375 376.921875 C620.58083984 376.00148438 620.58083984 376.00148438 621.6875 375.0625 C622.33074219 374.51722656 622.97398437 373.97195313 623.63671875 373.41015625 C625.23168547 372.08724769 625.23168547 372.08724769 625 370 C625.66 370 626.32 370 627 370 C629.58227095 367.5800874 631.74826899 364.7239311 634 362 C634.45262207 361.45827148 634.90524414 360.91654297 635.37158203 360.35839844 C649.87733682 342.93997638 661.00255507 323.96991485 667 302 C667.33128906 301.01773438 667.66257812 300.03546875 668.00390625 299.0234375 C668.99582728 296.01266542 669.78192515 293.02444132 670.5 289.9375 C670.85578125 288.43509766 670.85578125 288.43509766 671.21875 286.90234375 C673.50687927 275.47313805 674.36544722 264.5539322 674.3125 252.9375 C674.31167419 252.17119263 674.31084839 251.40488525 674.30999756 250.61535645 C674.27381306 236.00672259 673.18635781 222.07844655 669 208 C668.55720703 206.35451172 668.55720703 206.35451172 668.10546875 204.67578125 C663.35514149 187.27139073 655.42853306 168.88179854 645 154 C644.34 154 643.68 154 643 154 C642.7525 153.29230469 642.505 152.58460938 642.25 151.85546875 C633.90995801 132.80368534 613.05823613 116.80826222 596 106 C595.05769531 105.40058594 594.11539063 104.80117188 593.14453125 104.18359375 C591.11640921 102.83893206 591.11640921 102.83893206 589 103 C589 102.34 589 101.68 589 101 C579.38344186 96.1348556 569.7319966 91.39198509 559.92026639 86.9312951 C558.52628344 86.25523812 557.15904225 85.52315093 555.81135249 84.75896913 C549.61124508 81.33312286 544.79772459 80.27708557 537.7678833 80.36076355 C536.7872412 80.35240787 535.8065991 80.3440522 534.79624057 80.33544332 C531.53468919 80.31363124 528.27427687 80.32708688 525.01269531 80.34057617 C522.66223299 80.33211538 520.31177768 80.32146781 517.96133423 80.30880737 C511.58291042 80.28065845 505.20482314 80.28314062 498.82635593 80.29110122 C492.78628031 80.29392247 486.74631522 80.27372137 480.70628318 80.25378648 C468.69415689 80.21489532 456.6821068 80.19823661 444.66992188 80.19555664 C433.12105289 80.19293299 421.5722754 80.18001323 410.0234375 80.15258789 C409.31727237 80.15091451 408.61110724 80.14924113 407.88354316 80.14751705 C404.33395944 80.13904373 400.78437624 80.13037336 397.23479319 80.12162435 C374.70504708 80.06640751 352.17531951 80.02827338 329.64550781 80.01245117 C328.45172138 80.01157659 327.25793495 80.010702 326.02797318 80.00980091 C313.90981218 80.00133835 301.79168278 79.99820715 289.67352295 80.0091095 C266.94235141 80.02804703 244.21481703 79.94799877 221.4845109 79.74693406 C214.90232522 79.6887697 208.32011157 79.63629612 201.737854 79.58695984 C200.27683309 79.5759917 200.27683309 79.5759917 198.78629661 79.56480199 C195.80675025 79.54249213 192.82720332 79.52026038 189.84765625 79.49804688 C177.69571624 79.40742091 165.54385757 79.31249751 153.39208984 79.20092773 C144.39416177 79.11835677 135.39621974 79.04629717 126.39810872 78.98676747 C121.67020868 78.95508432 116.94248906 78.91803109 112.21474457 78.86800575 C107.81150985 78.82150064 103.40839703 78.78881732 99.00497246 78.7670784 C97.38994811 78.75659708 95.77494823 78.74091587 94.16002846 78.71975899 C91.96472625 78.69174662 89.77010311 78.6820809 87.574646 78.67720032 C86.34572506 78.66706059 85.11680412 78.65692087 83.85064316 78.64647388 C82.90993092 78.7631375 81.96921867 78.87980112 81 79 Z M231 603 C231.02767456 603.67556946 231.05534912 604.35113892 231.0838623 605.04718018 C231.69603184 620.35938133 232.10255273 635.66137178 232.28125 650.984375 C232.29079712 651.790457 232.30034424 652.596539 232.31018066 653.42704773 C232.39788575 660.9184146 232.47631161 668.40987293 232.55224609 675.90136719 C232.59469822 680.05858829 232.64185801 684.21573485 232.69187927 688.3728714 C232.7183352 690.69792034 232.73916526 693.02297748 232.7598877 695.3480835 C232.7764621 696.74996303 232.79333131 698.15183913 232.81054688 699.55371094 C232.82307495 700.77862244 232.83560303 702.00353394 232.84851074 703.26556396 C232.69028751 705.91259084 232.69028751 705.91259084 234 707 C235.93234383 707.10466245 237.86854635 707.1385612 239.80371094 707.14526367 C241.67527863 707.15483345 241.67527863 707.15483345 243.58465576 707.16459656 C244.96789512 707.16612959 246.35113499 707.16724121 247.734375 707.16796875 C249.1656294 707.1711882 250.59688347 707.17455278 252.02813721 707.17805481 C255.05473586 707.18407001 258.08130594 707.1858934 261.10791016 707.18530273 C264.15256891 707.18522295 267.19707251 707.19191498 270.24169922 707.20581055 C290.26115387 707.29602771 310.04343257 706.71421649 330 705 C328.37159701 701.59780091 326.51714616 698.83178943 324 696 C323.34 696 322.68 696 322 696 C321.74927734 695.42258057 321.49855469 694.84516113 321.24023438 694.25024414 C319.83501053 691.70064805 318.23854947 690.02750447 316.15625 687.99609375 C315.40472656 687.25552734 314.65320313 686.51496094 313.87890625 685.75195312 C312.70134766 684.60629883 312.70134766 684.60629883 311.5 683.4375 C309.94568662 681.91764184 308.39350712 680.39559753 306.84375 678.87109375 C306.15474609 678.20005615 305.46574219 677.52901855 304.75585938 676.83764648 C303 675 303 675 301 672 C300.34 672 299.68 672 299 672 C299 671.34 299 670.68 299 670 C297.37013473 668.27433588 295.71574197 666.63630364 294 665 C293.0144255 664.01779759 292.03176007 663.03266934 291.05169678 662.04496765 C290.52459106 661.51641678 289.99748535 660.98786591 289.45440674 660.44329834 C288.89420837 659.88152893 288.33401001 659.31975952 287.75683594 658.7409668 C281.6366304 652.60448086 275.51392596 646.47049461 269.38976669 640.33795452 C265.68853916 636.63148195 261.98826316 632.92406913 258.29003906 629.21459961 C254.70735276 625.62109217 251.12226814 622.02999399 247.53546906 618.44059181 C246.16777988 617.07104956 244.80097366 615.70062498 243.43505096 614.32932091 C241.53419085 612.42125905 239.63028276 610.51629135 237.72558594 608.61206055 C237.15729065 608.04016998 236.58899536 607.46827942 236.003479 606.87905884 C233.85918781 604.21476858 233.85918781 604.21476858 231 603 Z " fill="#FFFFFF" transform="translate(553,458)"/>
<path d="" fill="#FFFFFF" transform="translate(0,0)"/>
<path d="" fill="#FFFFFF" transform="translate(0,0)"/>
</svg>
